<svg width="90" height="101" viewBox="0 0 90 101" fill="none" xmlns="http://www.w3.org/2000/svg">
<path d="M83.5495 60.3039C79.7051 74.1041 75.8503 87.8938 72.0059 101.694C71.7551 102.613 73.1759 103 73.4266 102.091C77.271 88.2907 81.1258 74.5011 84.9702 60.7009C85.2314 59.7816 83.8002 59.3846 83.5495 60.3039Z" fill="#00477C"/>
<path d="M33.5565 6.89066C27.5078 20.1893 25.9617 34.8252 26.8183 49.294C27.3093 57.6096 27.0899 76.1943 37.7665 78.994C48.652 81.846 54.0947 68.0876 55.7767 60.0019C58.4719 46.9748 57.9705 33.0388 53.6142 20.4192C51.483 14.2347 48.4222 7.00557 43.5435 2.47168C39.2395 -1.52942 34.9145 0.361444 31.1119 4.04914C30.6418 4.5088 31.3626 5.21918 31.8327 4.76997C45.8314 -8.78989 55.0245 26.6559 55.9856 35.9117C57.1556 47.2359 56.7691 61.8509 50.3966 71.7231C48.5893 74.5228 45.9045 77.0823 42.572 77.9076C36.1472 79.485 32.5118 74.7422 30.7567 69.5293C28.6151 63.1777 28.2391 55.9485 27.8421 49.3044C26.9959 35.0342 28.4689 20.5341 34.434 7.41299C34.7056 6.81753 33.8281 6.29519 33.5565 6.89066Z" fill="#00477C"/>
<path d="M5.60101 35.8081C14.5434 44.8131 25.3035 51.9169 37.38 55.9598C47.1477 59.2296 61.5433 62.1025 71.2588 57.2134C82.301 51.6557 76.1269 39.6107 68.6888 34.0426C57.866 25.9463 43.951 23.0108 30.715 22.2064C22.4307 21.705 -2.77726 21.7676 1.40143 36.2364C1.57903 36.8632 2.56099 36.5916 2.3834 35.9648C-0.813305 24.9121 16.8313 23.1466 24.0186 23.0317C30.5374 22.9272 37.2024 23.5436 43.5958 24.7867C50.5951 26.1448 57.4481 28.4118 63.643 31.9845C69.8484 35.5573 79.6893 43.2775 75.521 51.5513C69.7649 62.98 47.9416 58.3103 38.3933 55.2285C26.1915 51.2901 15.3165 44.1759 6.31138 35.0977C5.85172 34.6276 5.14135 35.3484 5.60101 35.8081Z" fill="#00477C"/>
<path d="M8.43175 60.8273C18.3039 47.2465 28.4372 33.7911 39.9287 21.5162C45.3923 15.6869 51.1589 9.94123 58.0224 5.75209C62.4519 3.04638 70.1615 -0.066751 72.5329 7.21462C73.9328 11.4978 71.5927 16.5749 69.7123 20.2521C63.1622 33.0912 52.9349 45.3452 42.4986 55.1965C37.0245 60.3572 31.0072 64.9537 24.3839 68.537C20.9156 70.4174 15.8176 73.3216 11.7956 71.6501C3.7934 68.328 12.0986 58.038 14.4804 54.7159C14.8565 54.1831 13.979 53.6817 13.6029 54.204C11.1166 57.6619 4.17993 65.497 7.38708 70.0204C10.3331 74.1782 16.6324 73.1753 20.5709 71.5456C34.7262 65.6955 46.4161 53.8071 55.8286 42.0858C60.6654 36.0581 65.4814 29.7587 69.3467 23.0519C72.0733 18.33 75.4058 11.8843 73.2746 6.32665C68.4796 -6.20943 51.6395 8.65628 46.6146 13.326C31.7071 27.1574 19.4635 43.9244 7.54377 60.3049C7.17813 60.8482 8.05567 61.3496 8.43175 60.8273Z" fill="#00477C"/>
<path d="M38.9362 36.7692C35.3843 40.342 41.9971 46.4011 44.7133 42.2433C45.8938 40.436 45.2356 37.4483 43.2612 36.4663C41.0778 35.3903 38.3303 36.9677 37.0663 38.7228C36.6797 39.2556 37.5573 39.757 37.9438 39.2347C38.8213 38.0228 40.2003 37.2184 41.7151 37.1976C43.7313 37.1662 44.9118 39.7257 44.0133 41.4389C42.2896 44.7505 36.9827 40.1853 39.6571 37.4901C40.1167 37.02 39.3959 36.3096 38.9362 36.7692Z" fill="#00477C"/>
<path d="M1.44286 35.432C1.04589 37.4274 2.32041 39.7256 4.30529 40.3316C6.40508 40.9688 8.38996 39.172 8.19147 37.0408C8.01388 35.056 5.95585 33.0188 3.88739 33.2591C1.66224 33.5203 0.930984 36.1006 1.65181 37.9393C1.89208 38.5347 2.87408 38.2735 2.6338 37.6676C2.14281 36.4349 2.35173 34.5232 3.96053 34.2829C5.41262 34.0635 6.85429 35.5365 7.1468 36.8632C7.51244 38.5347 5.87228 40.0077 4.28437 39.2451C3.03077 38.6496 2.15324 37.0722 2.42486 35.7037C2.55022 35.056 1.56822 34.7843 1.44286 35.432Z" fill="#00477C"/>
<path d="M18.3458 69.7695C17.7817 71.8066 18.7846 74.0318 20.6546 75.0033C22.2634 75.8495 24.4467 75.5675 25.1884 73.7288C25.8675 72.0678 24.6557 69.7486 22.8066 69.5397C21.0306 69.3412 20.3098 71.2948 20.9471 72.6842C21.2187 73.2796 22.0962 72.7573 21.8246 72.1723C21.4798 71.4306 21.8455 70.3754 22.8379 70.5635C23.3289 70.6575 23.8095 71.1694 24.0497 71.5768C24.7601 72.7782 24.1646 74.3243 22.6917 74.4706C20.4038 74.6899 18.7533 72.0678 19.3174 70.0307C19.5054 69.4039 18.5234 69.1427 18.3458 69.7695Z" fill="#00477C"/>
<path d="M68.7828 18.3924C66.3278 21.7562 71.7601 32.1089 74.9672 27.9093C76.3357 26.1229 75.6567 21.986 74.3195 20.3041C72.46 17.9745 69.8274 19.3535 68.1351 21.0145C67.665 21.4741 68.3858 22.1845 68.8559 21.7353C70.6214 20.0116 73.233 19.1654 74.1628 22.2576C74.3613 22.9367 74.4658 23.7097 74.5285 24.3992C74.5807 24.8067 74.6016 25.2036 74.6016 25.6111C74.7792 26.5304 74.3822 27.0318 73.4106 27.1049C72.7003 27.8049 72.1048 27.7526 71.6242 26.9482C71.2795 26.5408 70.9661 26.1125 70.6945 25.6528C70.3706 25.1409 70.0886 24.5977 69.8379 24.044C69.1171 22.4352 68.5111 20.4608 69.6498 18.9042C70.0468 18.3715 69.1693 17.87 68.7828 18.3924Z" fill="#00477C"/>
<path d="M32.7622 2.60766C29.1895 3.2867 30.4953 8.24889 31.9265 10.3173C33.4622 12.5425 36.3455 12.9499 37.1603 9.90993C37.7035 7.87281 37.2021 2.31515 34.1934 2.3047C30.9027 2.29426 30.464 7.24601 30.3073 9.52339C30.2655 10.1711 31.2788 10.1711 31.3206 9.52339C31.4251 7.99817 31.5086 6.26402 32.2712 4.8955C32.9816 3.61055 34.1308 2.93151 35.3426 4.20601C35.9694 4.85371 36.1888 6.36848 36.2932 7.22512C36.3977 8.09219 36.4708 9.23089 36.0425 10.0248C35.2277 11.571 33.7756 11.0695 32.9189 9.94127C31.8116 8.47872 30.2028 4.12244 33.0443 3.57921C33.6711 3.46429 33.3995 2.49275 32.7622 2.60766Z" fill="#00477C"/>
<path d="M48.2865 67.5237C48.1194 70.8876 50.2401 74.3977 53.3741 75.7244C56.1634 76.9049 59.1093 75.6826 58.775 72.3814C58.4616 69.3205 56.2678 64.6926 52.5279 64.9956C48.5686 65.3194 48.976 70.3025 49.9162 72.9247C50.1356 73.5306 51.1176 73.2694 50.8982 72.6531C50.0833 70.3757 49.6968 64.6822 53.8755 66.2596C56.1111 67.1058 58.096 70.5637 57.8035 72.9978C57.3752 76.4975 53.4681 75.0662 51.7653 73.4574C50.146 71.9218 49.1849 69.7698 49.2894 67.5341C49.3312 66.876 48.3178 66.876 48.2865 67.5237Z" fill="#00477C"/>
<path d="M87.6436 62.1007C86.1497 75.4307 82.7963 88.3324 77.6461 100.712C77.2805 101.589 78.7116 101.976 79.0668 101.109C84.2693 88.5936 87.6019 75.5665 89.1167 62.1007C89.2211 61.1605 87.7481 61.1709 87.6436 62.1007Z" fill="#00477C"/>
</svg>
