<svg width="218" height="194" viewBox="0 0 218 194" fill="none" xmlns="http://www.w3.org/2000/svg">
<path d="M96.2208 65.1193C94.2882 77.9897 98.8848 90.4944 108.652 99.0921C117.856 107.188 129.535 108.839 141.131 105.329C149.813 102.696 156.895 97.2535 159.121 88.1544C161.732 77.5091 158.891 65.7565 156.739 55.2994C156.551 54.3696 155.12 54.7666 155.318 55.6963C158.786 72.5887 163.665 95.3208 143.304 103.041C132.178 107.261 120.018 106.582 110.648 98.8727C100.713 90.6929 95.7298 78.2822 97.6416 65.5163C97.7774 64.5761 96.3566 64.1791 96.2208 65.1193Z" fill="#00477C"/>
<path d="M96.523 71.847C91.0176 72.9439 84.2377 74.2288 81.1977 79.5567C78.5442 84.2159 79.3904 90.1288 81.4171 94.8507C83.0676 98.7055 85.93 102.728 90.3176 103.532C96.3036 104.629 103.073 101.558 108.067 98.5175C108.882 98.0265 108.14 96.7416 107.325 97.243C103.721 99.4368 100.033 101.046 95.844 101.766C89.0014 102.936 84.854 99.7293 82.4304 93.4508C80.8425 89.3557 80.2052 84.2891 82.4722 80.3193C85.2928 75.3884 91.822 74.3124 96.9096 73.2886C97.8498 73.0901 97.4528 71.6694 96.523 71.847Z" fill="#00477C"/>
<path d="M127.978 107.355C127.466 109.946 127.383 114.271 129.901 115.984C132.815 117.959 139.01 116.12 141.946 115.002C144.819 113.916 148.349 112.046 148.903 108.672C149.311 106.185 147.973 103.939 145.592 103.25C144.672 102.989 144.286 104.409 145.195 104.671C150.345 106.165 145.968 111.304 143.701 112.6C142.029 113.561 140.065 114.156 138.195 114.564C136.67 114.898 133.745 115.64 132.126 115.086C128.877 113.979 128.877 110.395 129.399 107.742C129.587 106.823 128.166 106.426 127.978 107.355Z" fill="#00477C"/>
<path d="M134.267 116.246C135.406 119.944 136.294 123.767 136.513 127.633C136.764 132.041 135.824 140.889 130.088 141.934C129.159 142.101 129.545 143.532 130.485 143.355C135.165 142.509 137.109 136.951 137.777 132.762C138.676 127.173 137.338 121.176 135.698 115.849C135.416 114.94 133.985 115.326 134.267 116.246Z" fill="#00477C"/>
<path d="M141.591 114.501C142.75 120.738 145.205 126.766 148.977 131.895C150.982 134.622 154.064 139.03 157.888 137.045C158.734 136.607 157.982 135.332 157.146 135.771C153.187 137.818 148.183 128.197 146.929 125.752C145.038 122.065 143.774 118.168 143.022 114.115C142.844 113.175 141.424 113.572 141.591 114.501Z" fill="#00477C"/>
<path d="M125.064 145.267C134.486 143 143.962 140.921 153.416 138.769C155.735 138.236 158.556 137.087 160.927 137.025C162.129 136.199 163.069 136.356 163.758 137.484C164.207 139.574 163.716 140.702 162.306 140.859C160.844 141.715 158.138 141.757 156.487 142.081C150.501 143.282 144.494 144.39 138.477 145.445C135.886 145.904 133.285 146.354 130.684 146.761C129.765 146.907 128.124 147.492 127.216 147.294C125.471 146.907 125.941 146.542 125.575 144.358C125.419 143.418 123.998 143.815 124.155 144.755C124.364 145.988 124.583 147.231 124.792 148.464C124.844 148.746 125.21 149.038 125.502 149.007C133.745 148.004 141.935 146.374 150.083 144.828C154.043 144.076 158.169 143.522 162.055 142.436C166.057 141.308 165.325 139.72 165.148 135.437C165.127 134.946 164.688 134.611 164.207 134.726C151.055 137.892 137.819 140.681 124.667 143.846C123.747 144.066 124.134 145.486 125.064 145.267Z" fill="#00477C"/>
<path d="M95.9173 75.8061C91.2998 77.0911 87.1002 78.6163 84.9795 83.286C83.5588 86.42 83.8826 89.7108 85.0422 92.8552C88.3538 101.787 98.9364 99.771 105.267 95.0177C106.019 94.4536 105.278 93.1686 104.525 93.7432C98.8319 98.0264 89.0537 100.262 86.2854 91.8628C85.5227 89.554 85.1676 87.2035 85.9615 84.8112C87.5494 80.0162 91.9266 78.4492 96.3247 77.2269C97.2231 76.9762 96.8366 75.5554 95.9173 75.8061Z" fill="#00477C"/>
<path d="M157.647 62.1525C162.494 60.9929 168.72 59.2378 173.264 62.2256C177.37 64.9313 178.958 70.1547 179.188 74.8244C179.47 80.591 177.715 85.2815 171.885 87.162C167.299 88.635 162.818 88.823 158.085 88.2902C157.145 88.1857 157.145 89.6587 158.085 89.7632C163.842 90.4213 171.363 90.3482 176.294 86.8381C180.326 83.9653 180.985 78.2927 180.588 73.7484C180.17 69.0578 178.404 64.0747 174.424 61.2541C169.43 57.7126 162.713 59.4259 157.26 60.7317C156.33 60.9511 156.727 62.3719 157.647 62.1525Z" fill="#00477C"/>
<path d="M158.316 65.9029C162.662 65.1716 167.018 64.1374 170.894 66.8222C173.359 68.5355 174.529 71.0322 174.958 73.9155C175.417 77.0391 175.166 80.0687 172.315 82.0744C168.7 84.6234 163.571 84.8846 159.392 83.9653C158.462 83.7564 158.065 85.1876 158.995 85.386C167.248 87.2142 177.642 84.1951 176.483 74.2603C176.075 70.8129 174.79 67.7938 171.918 65.694C167.655 62.5704 162.777 63.6568 157.929 64.4717C156.979 64.6284 157.376 66.0596 158.316 65.9029Z" fill="#00477C"/>
<path d="M98.1737 66.3414C117.27 61.5045 136.827 59.4256 156.216 56.1976C157.156 56.0409 156.759 54.6201 155.819 54.7768C136.43 57.9944 116.873 60.0838 97.7767 64.9206C96.8574 65.1504 97.2544 66.5712 98.1737 66.3414Z" fill="#00477C"/>
<path d="M124.781 70.8441C123.057 74.281 119.923 78.4597 119.37 82.2624C119.317 82.6071 119.411 82.8996 119.704 83.0981C121.417 84.2159 123.726 84.6964 125.638 85.3755C125.909 85.4695 126.348 85.3128 126.473 85.0412C127.111 83.5786 127.79 82.3982 128.709 81.0923C128.249 80.967 127.79 80.8416 127.33 80.7162C127.476 82.043 127.591 83.1399 127.811 84.4562C127.926 85.177 129.179 89.0736 128.949 89.69C128.375 91.2361 124.718 91.6017 123.172 92.3852C122.89 92.521 122.734 92.9285 122.828 93.221C123.548 95.4043 123.423 97.4206 125.575 97.9011C127.497 98.3294 131.258 96.6266 133.107 96.1565C136.189 95.3626 139.239 94.485 142.29 93.5448C142.676 93.4299 142.917 93.0329 142.802 92.636C142.478 91.445 142.311 90.0974 141.694 89.0109C141.569 88.7916 141.318 88.6453 141.057 88.6453C139.856 88.6557 138.393 89.7213 137.275 89.4915C134.81 88.9692 134.57 86.1799 134.162 84.2368C133.358 80.3924 132.71 76.5166 131.665 72.7349C130.266 67.6474 129.075 67.522 124.447 70.2904C123.632 70.7814 124.374 72.0559 125.188 71.5649C133.546 66.5609 130.569 88.9796 134.977 91.2361C135.687 91.6017 137.014 90.9645 137.672 90.9123C141.015 90.6406 141.527 91.936 138.236 93.221C135.614 94.2448 132.668 94.7671 129.931 95.4148C128.385 95.7804 127.393 96.3759 126.003 95.373C123.141 93.3254 128.646 92.0509 130.151 91.9465C130.621 91.9151 131.007 91.4973 130.861 91.0167C129.869 87.6111 129.19 84.2577 128.803 80.7267C128.719 79.9954 127.863 79.7342 127.424 80.3506C126.672 81.4162 126.265 82.6802 125.042 83.119C123.225 83.7771 121.595 82.2519 121.699 80.2461C121.835 77.7389 124.906 73.8423 126.045 71.5858C126.484 70.7396 125.209 69.9979 124.781 70.8441Z" fill="#00477C"/>
<path d="M152.121 62.9882C153.197 70.0293 155.506 81.2178 151.045 87.4336C150.491 88.2066 151.766 88.9483 152.319 88.1753C157.156 81.4267 154.701 70.1756 153.552 62.5912C153.406 61.6615 151.985 62.0584 152.121 62.9882Z" fill="#00477C"/>
<path d="M148.757 93.9313C147.462 95.4043 145.885 96.5534 144.056 97.2847C143.189 97.6295 143.565 99.0607 144.453 98.7055C146.522 97.8802 148.329 96.6475 149.802 94.9655C150.429 94.2656 149.395 93.2105 148.757 93.9313Z" fill="#00477C"/>
<path d="M143.304 107.919C143.795 108.024 143.868 108.578 143.711 108.995C143.492 109.58 142.917 110.009 142.447 110.395C141.716 111.012 142.771 112.046 143.492 111.44C144.349 110.73 145.247 109.852 145.268 108.651C145.278 107.669 144.693 106.697 143.701 106.488C142.771 106.3 142.374 107.721 143.304 107.919Z" fill="#00477C"/>
<path d="M139.961 120.591C141.121 124.916 142.447 129.294 146.041 132.229C146.772 132.825 147.817 131.79 147.086 131.184C143.67 128.385 142.489 124.3 141.382 120.194C141.131 119.275 139.71 119.672 139.961 120.591Z" fill="#00477C"/>
<path d="M96.9206 1.35254C105.09 5.80285 114.294 7.85041 123.267 10.3158C152.205 18.2449 180.944 31.7108 199.382 55.3726C217.821 79.0345 223.211 114.637 205.817 139.093C198.693 149.122 188.455 156.549 177.716 162.535C165.295 169.461 151.421 174.81 137.214 174.089C121.47 173.295 107.169 165.241 92.1673 160.415C71.7858 153.854 49.7118 153.279 28.7034 157.343C20.1998 158.994 11.3201 161.71 5.73106 168.323C0.142061 174.936 -0.254943 186.49 6.94286 191.285C12.1871 194.784 19.573 193.468 24.6083 189.676C29.6437 185.884 32.7777 180.107 35.3058 174.33C37.8861 168.438 39.6829 160.697 35.0237 156.257C33.0179 154.345 30.2286 153.541 27.5125 152.997C18.7059 151.232 9.48144 151.587 0.831543 154.042" stroke="#00477C" stroke-width="1.56701" stroke-miterlimit="10" stroke-linecap="round" stroke-dasharray="10.17 10.17"/>
</svg>
